HIERARCHY
ROOT hip
{
	OFFSET 0.000000 0.000000 0.000000
	CHANNELS 6 Xposition Yposition Zposition Xrotation Zrotation Yrotation 
	JOINT abdomen
	{
		OFFSET 0.000000 3.422050 0.000000
		CHANNELS 3 Xrotation Zrotation Yrotation 
		JOINT chest
		{
			OFFSET 0.000000 8.486693 -0.6844110
			CHANNELS 3 Xrotation Zrotation Yrotation 
			JOINT neck
			{
				OFFSET 0.000000 10.26616 -0.2737640
				CHANNELS 3 Xrotation Zrotation Yrotation 
				JOINT head
				{
					OFFSET 0.000000 3.148285 0.000000
					CHANNELS 3 Xrotation Zrotation Yrotation 
					End Site
					{
						OFFSET 0.000000 3.148289 0.000000
					}
				}
			}
			JOINT lCollar
			{
				OFFSET 3.422053 6.707223 -0.8212930
				CHANNELS 3 Yrotation Zrotation Xrotation 
				JOINT lShldr
				{
					OFFSET 3.285171 0.000000 0.000000
					CHANNELS 3 Zrotation Yrotation Xrotation 
					JOINT lForeArm
					{
						OFFSET 10.12928 0.000000 0.000000
						CHANNELS 3 Yrotation Zrotation Xrotation 
						JOINT lHand
						{
							OFFSET 8.486692 0.000000 0.000000
							CHANNELS 3 Zrotation Yrotation Xrotation 
							End Site
							{
								OFFSET 4.106464 0.000000 0.000000
							}
						}
					}
				}
			}
			JOINT rCollar
			{
				OFFSET -3.558935 6.707223 -0.8212930
				CHANNELS 3 Yrotation Zrotation Xrotation 
				JOINT rShldr
				{
					OFFSET -3.148289 0.000000 0.000000
					CHANNELS 3 Zrotation Yrotation Xrotation 
					JOINT rForeArm
					{
						OFFSET -10.26616 0.000000 0.000000
						CHANNELS 3 Yrotation Zrotation Xrotation 
						JOINT rHand
						{
							OFFSET -8.349810 0.000000 0.000000
							CHANNELS 3 Zrotation Yrotation Xrotation 
							End Site
							{
								OFFSET -4.106464 0.000000 0.000000
							}
						}
					}
				}
			}
		}
	}
	JOINT lThigh
	{
		OFFSET 5.338403 -1.642589 1.368821
		CHANNELS 3 Xrotation Zrotation Yrotation 
		JOINT lShin
		{
			OFFSET -2.053232 -20.12167 0.000000
			CHANNELS 3 Xrotation Zrotation Yrotation 
			JOINT lFoot
			{
				OFFSET 0.000000 -19.30038 -1.231939
				CHANNELS 3 Xrotation Yrotation Zrotation 
				End Site
				{
					OFFSET 0.000000 -2.463878 4.653993
				}
			}
		}
	}
	JOINT rThigh
	{
		OFFSET -5.338403 -1.642589 1.368821
		CHANNELS 3 Xrotation Zrotation Yrotation 
		JOINT rShin
		{
			OFFSET 2.053232 -20.12167 0.000000
			CHANNELS 3 Xrotation Zrotation Yrotation 
			JOINT rFoot
			{
				OFFSET 0.000000 -19.30038 -1.231939
				CHANNELS 3 Xrotation Yrotation Zrotation 
				End Site
				{
					OFFSET 0.000000 -2.463878 4.653993
				}
			}
		}
	}
}
MOTION
Frames:	18
Frame Time:	0.03333333
0.000000 43.52852 0.000000 0.000000 0.000000 0.000000 0.000000 0.000000 0.000000 0.000000 0.000000 0.000000 0.000000 0.000000 0.000000 0.000000 0.000000 0.000000 0.000000 0.000000 0.000000 0.000000 0.000000 0.000000 0.000000 0.000000 0.000000 0.000000 0.000000 0.000000 0.000000 0.000000 0.000000 0.000000 0.000000 0.000000 0.000000 0.000000 0.000000 0.000000 0.000000 0.000000 0.000000 0.000000 0.000000 0.000000 0.000000 0.000000 0.000000 0.000000 0.000000 0.000000 0.000000 0.000000 0.000000 0.000000 0.000000 0.000000 0.000000 0.000000 
0.000000 43.52852 0.000000 1.000000 0.000000 0.000000 1.000000 0.000000 53.00000 1.000000 0.000000 0.000000 1.000000 0.000000 0.000000 1.000000 0.000000 -44.00000 0.000000 0.000000 1.000000 -74.00000 -65.00000 -1.000000 -121.0000 14.00000 0.000000 0.000000 0.000000 -90.00000 0.000000 0.000000 1.000000 74.00000 65.00000 -1.000000 121.0000 -14.00000 0.000000 0.000000 0.000000 -90.00000 -127.0000 0.000000 0.000000 135.0000 0.000000 0.000000 -14.00000 0.000000 0.000000 -11.00000 0.000000 0.000000 25.00000 0.000000 0.000000 -14.00000 0.000000 0.000000 
0.8461539 43.52852 0.000000 1.000000 0.000000 0.000000 1.000000 0.000000 48.92308 1.000000 0.000000 0.000000 1.000000 0.000000 0.000000 1.000000 0.000000 -40.61538 0.000000 0.000000 1.000000 -74.00000 -69.30769 -1.000000 -116.5385 14.00000 0.000000 0.000000 0.000000 -90.00000 0.000000 0.000000 1.000000 74.00000 69.30769 -1.000000 116.5385 -14.00000 0.000000 0.000000 0.000000 -90.00000 -118.0769 1.538462 1.000000 126.5385 0.000000 0.000000 -14.00000 0.000000 0.000000 -11.00000 -1.538462 -1.000000 25.00000 0.000000 0.000000 -14.00000 0.000000 0.000000 
1.692308 43.52852 0.000000 1.000000 0.000000 0.000000 1.000000 0.000000 44.84615 1.000000 0.000000 0.000000 1.000000 0.000000 0.000000 1.000000 0.000000 -37.23077 0.000000 0.000000 1.000000 -74.00000 -73.61539 -1.000000 -112.0769 14.00000 0.000000 0.000000 0.000000 -90.00000 0.000000 0.000000 1.000000 74.00000 73.61539 -1.000000 112.0769 -14.00000 0.000000 0.000000 0.000000 -90.00000 -109.1538 3.076923 2.000000 118.0769 0.000000 0.000000 -14.00000 0.000000 0.000000 -11.00000 -3.076923 -2.000000 25.00000 0.000000 0.000000 -14.00000 0.000000 0.000000 
2.538461 43.52852 0.000000 1.000000 0.000000 0.000000 1.000000 0.000000 40.76923 1.000000 0.000000 0.000000 1.000000 0.000000 0.000000 1.000000 0.000000 -33.84615 0.000000 0.000000 1.000000 -74.00000 -77.92308 -1.000000 -107.6154 14.00000 0.000000 0.000000 0.000000 -90.00000 0.000000 0.000000 1.000000 74.00000 77.92308 -1.000000 107.6154 -14.00000 0.000000 0.000000 0.000000 -90.00000 -100.2308 4.615385 3.000000 109.6154 0.000000 0.000000 -14.00000 0.000000 0.000000 -11.00000 -4.615385 -3.000000 25.00000 0.000000 0.000000 -14.00000 0.000000 0.000000 
3.384615 43.52852 0.000000 1.000000 0.000000 0.000000 1.000000 0.000000 36.69231 1.000000 0.000000 0.000000 1.000000 0.000000 0.000000 1.000000 0.000000 -30.46154 0.000000 0.000000 1.000000 -74.00000 -82.23077 -1.000000 -103.1538 14.00000 0.000000 0.000000 0.000000 -90.00000 0.000000 0.000000 1.000000 74.00000 82.23077 -1.000000 103.1538 -14.00000 0.000000 0.000000 0.000000 -90.00000 -91.30769 6.153846 4.000000 101.1538 0.000000 0.000000 -14.00000 0.000000 0.000000 -11.00000 -6.153846 -4.000000 25.00000 0.000000 0.000000 -14.00000 0.000000 0.000000 
4.230769 43.52852 0.000000 1.000000 0.000000 0.000000 1.000000 0.000000 32.61538 1.000000 0.000000 0.000000 1.000000 0.000000 0.000000 1.000000 0.000000 -27.07692 0.000000 0.000000 1.000000 -74.00000 -86.53846 -1.000000 -98.69231 14.00000 0.000000 0.000000 0.000000 -90.00000 0.000000 0.000000 1.000000 74.00000 86.53846 -1.000000 98.69231 -14.00000 0.000000 0.000000 0.000000 -90.00000 -82.38461 7.692307 5.000000 92.69231 0.000000 0.000000 -14.00000 0.000000 0.000000 -11.00000 -7.692307 -5.000000 25.00000 0.000000 0.000000 -14.00000 0.000000 0.000000 
5.076923 43.52852 0.000000 1.000000 0.000000 0.000000 1.000000 0.000000 28.53846 1.000000 0.000000 0.000000 1.000000 0.000000 0.000000 1.000000 0.000000 -23.69231 0.000000 0.000000 1.000000 -74.00000 -90.84615 -1.000000 -94.23077 14.00000 0.000000 0.000000 0.000000 -90.00000 0.000000 0.000000 1.000000 74.00000 90.84615 -1.000000 94.23077 -14.00000 0.000000 0.000000 0.000000 -90.00000 -73.46154 9.230769 6.000000 84.23077 0.000000 0.000000 -14.00000 0.000000 0.000000 -11.00000 -9.230769 -6.000000 25.00000 0.000000 0.000000 -14.00000 0.000000 0.000000 
5.923077 43.52852 0.000000 1.000000 0.000000 0.000000 1.000000 0.000000 24.46154 1.000000 0.000000 0.000000 1.000000 0.000000 0.000000 1.000000 0.000000 -20.30769 0.000000 0.000000 1.000000 -74.00000 -95.15385 -1.000000 -89.76923 14.00000 0.000000 0.000000 0.000000 -90.00000 0.000000 0.000000 1.000000 74.00000 95.15385 -1.000000 89.76923 -14.00000 0.000000 0.000000 0.000000 -90.00000 -64.53846 10.76923 7.000000 75.76923 0.000000 0.000000 -14.00000 0.000000 0.000000 -11.00000 -10.76923 -7.000000 25.00000 0.000000 0.000000 -14.00000 0.000000 0.000000 
6.769231 43.52852 0.000000 1.000000 0.000000 0.000000 1.000000 0.000000 20.38461 1.000000 0.000000 0.000000 1.000000 0.000000 0.000000 1.000000 0.000000 -16.92308 0.000000 0.000000 1.000000 -74.00000 -99.46154 -1.000000 -85.30769 14.00000 0.000000 0.000000 0.000000 -90.00000 0.000000 0.000000 1.000000 74.00000 99.46154 -1.000000 85.30769 -14.00000 0.000000 0.000000 0.000000 -90.00000 -55.61538 12.30769 8.000000 67.30769 0.000000 0.000000 -14.00000 0.000000 0.000000 -11.00000 -12.30769 -8.000000 25.00000 0.000000 0.000000 -14.00000 0.000000 0.000000 
7.615385 43.52852 0.000000 1.000000 0.000000 0.000000 1.000000 0.000000 16.30769 1.000000 0.000000 0.000000 1.000000 0.000000 0.000000 1.000000 0.000000 -13.53846 0.000000 0.000000 1.000000 -74.00000 -103.7692 -1.000000 -80.84615 14.00000 0.000000 0.000000 0.000000 -90.00000 0.000000 0.000000 1.000000 74.00000 103.7692 -1.000000 80.84615 -14.00000 0.000000 0.000000 0.000000 -90.00000 -46.69231 13.84615 9.000000 58.84615 0.000000 0.000000 -14.00000 0.000000 0.000000 -11.00000 -13.84615 -9.000000 25.00000 0.000000 0.000000 -14.00000 0.000000 0.000000 
8.461538 43.52852 0.000000 1.000000 0.000000 0.000000 1.000000 0.000000 12.23077 1.000000 0.000000 0.000000 1.000000 0.000000 0.000000 1.000000 0.000000 -10.15385 0.000000 0.000000 1.000000 -74.00000 -108.0769 -1.000000 -76.38461 14.00000 0.000000 0.000000 0.000000 -90.00000 0.000000 0.000000 1.000000 74.00000 108.0769 -1.000000 76.38461 -14.00000 0.000000 0.000000 0.000000 -90.00000 -37.76923 15.38461 10.00000 50.38462 0.000000 0.000000 -14.00000 0.000000 0.000000 -11.00000 -15.38461 -10.00000 25.00000 0.000000 0.000000 -14.00000 0.000000 0.000000 
9.307693 43.52852 0.000000 1.000000 0.000000 0.000000 1.000000 0.000000 8.153846 1.000000 0.000000 0.000000 1.000000 0.000000 0.000000 1.000000 0.000000 -6.769231 0.000000 0.000000 1.000000 -74.00000 -112.3846 -1.000000 -71.92308 14.00000 0.000000 0.000000 0.000000 -90.00000 0.000000 0.000000 1.000000 74.00000 112.3846 -1.000000 71.92308 -14.00000 0.000000 0.000000 0.000000 -90.00000 -28.84615 16.92308 11.00000 41.92308 0.000000 0.000000 -14.00000 0.000000 0.000000 -11.00000 -16.92308 -11.00000 25.00000 0.000000 0.000000 -14.00000 0.000000 0.000000 
10.15385 43.52852 0.000000 1.000000 0.000000 0.000000 1.000000 0.000000 4.076923 1.000000 0.000000 0.000000 1.000000 0.000000 0.000000 1.000000 0.000000 -3.384615 0.000000 0.000000 1.000000 -74.00000 -116.6923 -1.000000 -67.46154 14.00000 0.000000 0.000000 0.000000 -90.00000 0.000000 0.000000 1.000000 74.00000 116.6923 -1.000000 67.46154 -14.00000 0.000000 0.000000 0.000000 -90.00000 -19.92308 18.46154 12.00000 33.46154 0.000000 0.000000 -14.00000 0.000000 0.000000 -11.00000 -18.46154 -12.00000 25.00000 0.000000 0.000000 -14.00000 0.000000 0.000000 
11.00000 43.52852 0.000000 1.000000 0.000000 0.000000 1.000000 0.000000 0.000000 1.000000 0.000000 0.000000 1.000000 0.000000 0.000000 1.000000 0.000000 0.000000 0.000000 0.000000 1.000000 -74.00000 -121.0000 -1.000000 -63.00000 14.00000 0.000000 0.000000 0.000000 -90.00000 0.000000 0.000000 1.000000 74.00000 121.0000 -1.000000 63.00000 -14.00000 0.000000 0.000000 0.000000 -90.00000 -11.00000 20.00000 13.00000 25.00000 0.000000 0.000000 -14.00000 0.000000 0.000000 -11.00000 -20.00000 -13.00000 25.00000 0.000000 0.000000 -14.00000 0.000000 0.000000 
11.66667 43.52852 0.000000 1.000000 0.000000 0.000000 1.000000 0.000000 -3.533333 1.000000 0.000000 0.000000 1.000000 0.000000 0.000000 1.000000 0.000000 2.933333 0.000000 0.000000 1.000000 -74.00000 -117.2667 -1.000000 -66.86667 14.00000 0.000000 0.000000 0.000000 -90.00000 0.000000 0.000000 1.000000 74.00000 117.2667 -1.000000 66.86667 -14.00000 0.000000 0.000000 0.000000 -90.00000 -11.00000 18.66667 12.13333 25.00000 0.000000 0.000000 -14.00000 0.000000 0.000000 -18.73333 -18.66667 -12.13333 32.33333 0.000000 0.000000 -14.00000 0.000000 0.000000 
12.33333 43.52851 0.000000 1.000000 0.000000 0.000000 1.000000 0.000000 -7.066667 1.000000 0.000000 0.000000 1.000000 0.000000 0.000000 1.000000 0.000000 5.866667 0.000000 0.000000 1.000000 -74.00000 -113.5333 -1.000000 -70.73333 14.00000 0.000000 0.000000 0.000000 -90.00000 0.000000 0.000000 1.000000 74.00000 113.5333 -1.000000 70.73333 -14.00000 0.000000 0.000000 0.000000 -90.00000 -11.00000 17.33333 11.26667 25.00000 0.000000 0.000000 -14.00000 0.000000 0.000000 -26.46667 -17.33333 -11.26667 39.66667 0.000000 0.000000 -14.00000 0.000000 0.000000 
13.00000 43.52851 0.000000 1.000000 0.000000 0.000000 1.000000 0.000000 -10.60000 1.000000 0.000000 0.000000 1.000000 0.000000 0.000000 1.000000 0.000000 8.800000 0.000000 0.000000 1.000000 -74.00000 -109.8000 -1.000000 -74.60000 14.00000 0.000000 0.000000 0.000000 -90.00000 0.000000 0.000000 1.000000 74.00000 109.8000 -1.000000 74.60000 -14.00000 0.000000 0.000000 0.000000 -90.00000 -11.00000 16.00000 10.40000 25.00000 0.000000 0.000000 -14.00000 0.000000 0.000000 -34.20000 -16.00000 -10.40000 47.00000 0.000000 0.000000 -14.00000 0.000000 0.000000 
